<svg xmlns="http://www.w3.org/2000/svg" viewBox="0 0 24 24" fill="none">
  <path d="M8.5 4.5C5.47 4.5 3 6.67 3 9.35c0 1.55.82 2.94 2.1 3.83l-.44 1.92 1.98-.92c.75.24 1.56.38 2.38.38 3.03 0 5.49-2.17 5.49-4.85S11.53 4.5 8.5 4.5Z" stroke="currentColor" stroke-linecap="round" stroke-linejoin="round" stroke-width="1.5"/>
  <path d="M11.1 9.35h.01M7.45 9.35h.01M15.5 9.9c0 1.93-1.78 3.51-4.02 3.74l-.24.01c-.44 0-.87-.04-1.28-.12l-.98.61.14-.86c-.31-.17-.6-.36-.86-.58" stroke="currentColor" stroke-linecap="round" stroke-linejoin="round" stroke-width="1.5"/>
  <path d="M15.67 6.5C18.57 6.5 21 8.46 21 10.92c0 1.33-.71 2.52-1.83 3.27l.38 1.55-1.56-.72c-.66.2-1.38.31-2.11.31-.47 0-.93-.05-1.37-.14" stroke="currentColor" stroke-linecap="round" stroke-linejoin="round" stroke-width="1.5"/>
</svg>
